<svg id="Ebene_1" data-name="Ebene 1" xmlns="http://www.w3.org/2000/svg" viewBox="0 0 51.69 51.69"><defs><style>.cls-1{fill:#1a171b;}</style></defs><path class="cls-1" d="M54.3,17.12q.16,3.35.16,10.65T54.3,38.41a20.3,20.3,0,0,1-1.18,6.3,13.4,13.4,0,0,1-3,4.56,13,13,0,0,1-4.56,3,19.41,19.41,0,0,1-6.27,1.21q-3.43.16-10.66.16T18,53.45a19.41,19.41,0,0,1-6.27-1.21,13.34,13.34,0,0,1-4.59-3,13.45,13.45,0,0,1-3-4.56A19.78,19.78,0,0,1,3,38.41Q2.77,35,2.77,27.77T3,17.12a19.48,19.48,0,0,1,1.19-6.27,13.38,13.38,0,0,1,3-4.59,13.17,13.17,0,0,1,4.59-3A20,20,0,0,1,18,2.08q3.41-.17,10.65-.16t10.67.16A20.24,20.24,0,0,1,45.56,3.3a13.35,13.35,0,0,1,4.56,3,13.16,13.16,0,0,1,3,4.57A20,20,0,0,1,54.3,17.12Zm-35.06,20A12.79,12.79,0,0,0,28.63,41,13.25,13.25,0,0,0,41.91,27.77,12.78,12.78,0,0,0,38,18.39a12.82,12.82,0,0,0-9.4-3.89,12.8,12.8,0,0,0-9.39,3.89,12.79,12.79,0,0,0-3.89,9.38A12.81,12.81,0,0,0,19.24,37.15ZM20,27.77a8.64,8.64,0,0,1,8.63-8.62,8.27,8.27,0,0,1,6.09,2.53,8.66,8.66,0,0,1,0,12.19,8.67,8.67,0,0,1-10.43,1.35A8.6,8.6,0,0,1,20,27.77Zm20.23-11.6a2.92,2.92,0,0,0,2.18.92,3,3,0,0,0,2.2-.92,3,3,0,0,0,.92-2.2,3,3,0,0,0-.92-2.18,3,3,0,0,0-2.2-.91A3.11,3.11,0,0,0,39.32,14,3,3,0,0,0,40.23,16.17Z" transform="translate(-2.77 -1.92)"/></svg>